LG_Sit_Stand_Walk08																		
version=1																		
nRows=35																		
nColumns=19																		
inDegrees=yes																		
endheader																		
time	ground_force2_vx	ground_force2_vy	ground_force2_vz	ground_force2_px	ground_force2_py	ground_force2_pz	ground_torque2_x	ground_torque2_y	ground_torque2_z	ground_force1_vx	ground_force1_vy	ground_force1_vz	ground_force1_px	ground_force1_py	ground_force1_pz	ground_torque1_x	ground_torque1_y	ground_torque1_z
3.765	-20.330776	539.939331	-40.977814	0.171984	0	-0.164047	8.00E-06	1.319368	4.00E-06	0	0	0	-0.13	0	0.305	0	0	0
3.766	-20.330776	542.718872	-40.585999	0.171984	0	-0.164438	-1.00E-06	1.312796	6.00E-06	0	0	0	-0.13	0	0.305	0	0	0
3.767	-20.250038	546.33313	-40.585999	0.171611	0	-0.163958	-1.00E-06	1.312796	7.00E-06	0	0	0	-0.13	0	0.305	0	0	0
3.768	-20.249317	546.854614	-40.429497	0.171611	0	-0.164438	3.00E-06	1.316665	7.00E-06	0	0	0	-0.13	0	0.305	0	0	0
3.769	-19.85429	554.288696	-40.116058	0.171408	0	-0.164502	7.00E-06	1.316665	4.00E-06	0	0	0	-0.13	0	0.305	0	0	0
3.77	-19.547215	555.826172	-40.037846	0.171408	0	-0.16475	7.00E-06	1.313536	2.00E-06	0	0	0	-0.13	0	0.305	0	0	0
3.771	-19.541443	558.076538	-39.880943	0.171408	0	-0.164769	0.00E+00	1.313536	4.00E-06	0	0	0	-0.13	0	0.305	0	0	0
3.772	-19.46287	563.091736	-39.646034	0.171383	0	-0.164769	0	1.313536	5.00E-06	0	0	0	-0.13	0	0.305	0	0	0
3.773	-19.46287	566.01825	-39.411041	0.171602	0	-0.164769	7.00E-06	1.32676	5.00E-06	0	0	0	-0.13	0	0.305	0	0	0
3.774	-19.309332	566.902344	-39.019226	0.171458	0	-0.164761	7.00E-06	1.32676	3.00E-06	0	0	0	-0.13	0	0.305	0	0	0
3.775	-19.309332	571.208618	-39.019226	0.171458	0	-0.164761	7.00E-06	1.32676	3.00E-06	0	0	0	-0.13	0	0.305	0	0	0
3.776	-19.309332	574.833618	-38.940937	0.171166	0	-0.164794	3.00E-06	1.39627	2.00E-06	0	0	0	-0.13	0	0.305	0	0	0
3.777	-18.987827	578.287048	-38.784355	0.171166	0	-0.164932	3.00E-06	1.216552	5.00E-06	0	0	0	-0.13	0	0.305	0	0	0
3.778	-18.987827	583.816833	-38.627533	0.171166	0	-0.164794	3.00E-06	1.223761	5.00E-06	0	0	0	-0.13	0	0.305	0	0	0
3.779	-18.987827	584.328613	-38.314171	0.17107	0	-0.164746	6.00E-06	1.216552	5.00E-06	0	0	0	-0.13	0	0.305	0	0	0
3.78	-18.833569	585.733521	-37.530746	0.170892	0	-0.164746	1.00E-06	1.223761	2.00E-06	0	0	0	-0.13	0	0.305	0	0	0
3.781	-18.517113	592.792236	-37.452496	0.170892	0	-0.164144	6.00E-06	1.236158	2.00E-06	0	0	0	-0.13	0	0.305	0	0	0
3.782	-18.285004	593.845337	-37.452496	0.170892	0	-0.164474	3.00E-06	1.320932	0.00E+00	0	0	0	-0.13	0	0.305	0	0	0
3.783	-18.285004	596.945801	-37.217346	0.170915	0	-0.164474	6.00E-06	1.273054	1.00E-05	0	0	0	-0.13	0	0.305	0	0	0
3.784	-18.285004	603.158203	-37.138851	0.171002	0	-0.165215	5.00E-06	1.320932	1.00E-05	0	0	0	-0.13	0	0.305	0	0	0
3.785	-18.044956	605.39978	-36.355225	0.171002	0	-0.165215	5.00E-06	1.273054	1.00E-05	0	0	0	-0.13	0	0.305	0	0	0
3.786	-18.044956	606.463196	-36.355225	0.170954	0	-0.16498	3.00E-06	1.280151	7.00E-06	0	0	0	-0.13	0	0.305	0	0	0
3.787	-18.516392	610.936035	-36.198887	0.170781	0	-0.164644	3.00E-06	1.280151	7.00E-06	0	0	0	-0.13	0	0.305	0	0	0
3.788	-18.516392	612.84314	-36.198887	0.170781	0	-0.16498	9.00E-06	1.284797	6.00E-06	0	0	0	-0.13	0	0.305	0	0	0
3.789	-18.439983	618.188477	-35.806789	0.17099	0	-0.165166	9.00E-06	1.326359	7.00E-06	0	0	0	-0.13	0	0.305	0	0	0
3.79	-18.439983	621.999817	-35.415138	0.17099	0	-0.165166	7.00E-06	1.391072	6.00E-06	0	0	0	-0.13	0	0.305	0	0	0
3.791	-18.439983	622.858887	-35.258354	0.17107	0	-0.164971	5.00E-06	1.358597	6.00E-06	0	0	0	-0.13	0	0.305	0	0	0
3.792	-18.442869	627.36145	-35.101856	0.17107	0	-0.164971	7.00E-06	1.358597	5.00E-06	0	0	0	-0.13	0	0.305	0	0	0
3.793	-18.752831	632.356628	-34.944992	0.17107	0	-0.164939	7.00E-06	1.300832	6.00E-06	0	0	0	-0.13	0	0.305	0	0	0
3.794	-18.987106	633.914185	-34.944992	0.170983	0	-0.164939	1.20E-05	1.275967	2.00E-06	0	0	0	-0.13	0	0.305	0	0	0
3.795	-19.221378	636.165283	-34.866867	0.170983	0	-0.164939	7.00E-06	1.300832	7.00E-06	0	0	0	-0.13	0	0.305	0	0	0
3.796	-19.223545	642.032104	-34.866867	0.170983	0	-0.164572	9.00E-06	1.237239	2.00E-06	0	0	0	-0.13	0	0.305	0	0	0
3.797	-19.69426	642.38208	-34.47501	0.17083	0	-0.164549	9.00E-06	1.330189	7.00E-06	0	0	0	-0.13	0	0.305	0	0	0
3.798	-19.846352	644.815186	-34.47493	0.17083	0	-0.164549	9.00E-06	1.103849	7.00E-06	0	0	0	-0.13	0	0.305	0	0	0
3.799	-20.397081	649.974609	-34.161648	0.170829	0	-0.164749	9.00E-06	1.251816	7.00E-06	0	0	0	-0.13	0	0.305	0	0	0
